<?xml version="1.0" encoding="UTF-8" standalone="no"?><!DOCTYPE svg PUBLIC "-//W3C//DTD SVG 1.1//EN" "http://www.w3.org/Graphics/SVG/1.1/DTD/svg11.dtd"><svg width="100%" height="100%" viewBox="0 0 264 317" version="1.1" xmlns="http://www.w3.org/2000/svg" xmlns:xlink="http://www.w3.org/1999/xlink" xml:space="preserve" xmlns:serif="http://www.serif.com/" style="fill-rule:evenodd;clip-rule:evenodd;stroke-linecap:round;stroke-linejoin:round;stroke-miterlimit:1.5;"><g><path d="M166.592,92.318l92.124,188.18c3.523,7.196 3.086,15.7 -1.154,22.498c-4.241,6.798 -11.687,10.929 -19.699,10.929c-54.903,0 -157.013,0 -211.915,0c-8.012,0 -15.458,-4.131 -19.699,-10.929c-4.241,-6.798 -4.677,-15.302 -1.154,-22.498l92.124,-188.18l0,-79.539l69.373,0l0,79.539" style="fill:none;"/><clipPath id="_clip1"><path d="M166.592,92.318l92.124,188.18c3.523,7.196 3.086,15.7 -1.154,22.498c-4.241,6.798 -11.687,10.929 -19.699,10.929c-54.903,0 -157.013,0 -211.915,0c-8.012,0 -15.458,-4.131 -19.699,-10.929c-4.241,-6.798 -4.677,-15.302 -1.154,-22.498l92.124,-188.18l0,-79.539l69.373,0l0,79.539"/></clipPath><g clip-path="url(#_clip1)"><path d="M32.277,224.972c28.457,-21.911 45.118,7.169 76.052,6.423c30.935,-0.746 28.855,-18.858 60.281,-18.892c31.426,-0.033 25.884,25.957 62.735,12.085l44.162,89.337l-286.769,0l43.539,-88.953Z" style="fill:#c4c4c4;"/><clipPath id="_clip2"><path d="M32.277,224.972c28.457,-21.911 45.118,7.169 76.052,6.423c30.935,-0.746 28.855,-18.858 60.281,-18.892c31.426,-0.033 25.884,25.957 62.735,12.085l44.162,89.337l-286.769,0l43.539,-88.953Z"/></clipPath><g clip-path="url(#_clip2)"><circle cx="56.038" cy="254.841" r="5.089" style="fill:#fff;"/><circle cx="102.136" cy="282.837" r="8.12" style="fill:#fff;"/><circle cx="147.025" cy="248.7" r="8.12" style="fill:#fff;"/><circle cx="215.278" cy="285.892" r="5.065" style="fill:#fff;"/><circle cx="195.384" cy="254.409" r="3.786" style="fill:#fff;"/><circle cx="166.943" cy="288.608" r="3.786" style="fill:#fff;"/><circle cx="98.235" cy="250.623" r="4.218" style="fill:#fff;"/><circle cx="35.298" cy="294.426" r="5.818" style="fill:#fff;"/></g></g><path d="M166.592,92.318l92.124,188.18c3.523,7.196 3.086,15.7 -1.154,22.498c-4.241,6.798 -11.687,10.929 -19.699,10.929c-54.903,0 -157.013,0 -211.915,0c-8.012,0 -15.458,-4.131 -19.699,-10.929c-4.241,-6.798 -4.677,-15.302 -1.154,-22.498l92.124,-188.18l0,-79.539l69.373,0l0,79.539" style="fill:none;stroke:#000;stroke-width:5px;"/><path d="M180.958,7.688c0,-2.81 -2.278,-5.088 -5.088,-5.088c-16.897,0 -71.032,0 -87.93,0c-2.81,0 -5.088,2.278 -5.088,5.088c0,0.001 0,0.002 0,0.003c0,2.81 2.278,5.088 5.088,5.088c16.898,0 71.033,0 87.93,0c2.81,0 5.088,-2.278 5.088,-5.088c0,-0.001 0,-0.002 0,-0.003Z" style="fill:none;stroke:#000;stroke-width:5px;"/></g></svg>