<?xml version="1.0" encoding="UTF-8" standalone="no"?><!DOCTYPE svg PUBLIC "-//W3C//DTD SVG 1.1//EN" "http://www.w3.org/Graphics/SVG/1.1/DTD/svg11.dtd"><svg width="100%" height="100%" viewBox="0 0 265 317" version="1.1" xmlns="http://www.w3.org/2000/svg" xmlns:xlink="http://www.w3.org/1999/xlink" xml:space="preserve" xmlns:serif="http://www.serif.com/" style="fill-rule:evenodd;clip-rule:evenodd;stroke-linecap:round;stroke-linejoin:round;stroke-miterlimit:1.5;"><g><path d="M167.147,92.398l92.124,188.18c3.523,7.196 3.087,15.7 -1.154,22.498c-4.241,6.798 -11.687,10.929 -19.699,10.929c-54.903,0 -157.012,0 -211.915,0c-8.012,0 -15.458,-4.131 -19.699,-10.929c-4.241,-6.798 -4.677,-15.302 -1.154,-22.498l92.124,-188.18l0,-79.539l69.373,0l0,79.539" style="fill:none;"/><clipPath id="_clip1"><path d="M167.147,92.398l92.124,188.18c3.523,7.196 3.087,15.7 -1.154,22.498c-4.241,6.798 -11.687,10.929 -19.699,10.929c-54.903,0 -157.012,0 -211.915,0c-8.012,0 -15.458,-4.131 -19.699,-10.929c-4.241,-6.798 -4.677,-15.302 -1.154,-22.498l92.124,-188.18l0,-79.539l69.373,0l0,79.539"/></clipPath><g clip-path="url(#_clip1)"><path d="M32.832,225.052c28.457,-21.911 45.119,7.169 76.053,6.423c30.934,-0.746 28.854,-18.858 60.28,-18.892c31.426,-0.033 25.884,25.957 62.735,12.085l44.163,89.337l-286.77,0l43.539,-88.953Z" style="fill:#50a3ff;"/><clipPath id="_clip2"><path d="M32.832,225.052c28.457,-21.911 45.119,7.169 76.053,6.423c30.934,-0.746 28.854,-18.858 60.28,-18.892c31.426,-0.033 25.884,25.957 62.735,12.085l44.163,89.337l-286.77,0l43.539,-88.953Z"/></clipPath><g clip-path="url(#_clip2)"><circle cx="56.593" cy="254.921" r="5.089" style="fill:#fff;"/><circle cx="102.691" cy="282.917" r="8.12" style="fill:#fff;"/><circle cx="147.58" cy="248.78" r="8.12" style="fill:#fff;"/><circle cx="215.833" cy="285.972" r="5.065" style="fill:#fff;"/><circle cx="195.939" cy="254.489" r="3.786" style="fill:#fff;"/><circle cx="167.498" cy="288.688" r="3.786" style="fill:#fff;"/><circle cx="98.79" cy="250.703" r="4.218" style="fill:#fff;"/><circle cx="35.853" cy="294.506" r="5.818" style="fill:#fff;"/></g></g><path d="M167.147,92.398l92.124,188.18c3.523,7.196 3.087,15.7 -1.154,22.498c-4.241,6.798 -11.687,10.929 -19.699,10.929c-54.903,0 -157.012,0 -211.915,0c-8.012,0 -15.458,-4.131 -19.699,-10.929c-4.241,-6.798 -4.677,-15.302 -1.154,-22.498l92.124,-188.18l0,-79.539l69.373,0l0,79.539" style="fill:none;stroke:#000;stroke-width:5px;"/><path d="M181.513,7.768c0,-2.81 -2.277,-5.088 -5.088,-5.088c-16.897,0 -71.032,0 -87.93,0c-2.81,0 -5.088,2.278 -5.088,5.088c0,0.001 0,0.002 0,0.003c0,2.81 2.278,5.088 5.088,5.088c16.898,0 71.033,0 87.93,0c2.811,0 5.088,-2.278 5.088,-5.088c0,-0.001 0,-0.002 0,-0.003Z" style="fill:none;stroke:#000;stroke-width:5px;"/></g></svg>