<?xml version="1.0" encoding="UTF-8" standalone="no"?><!DOCTYPE svg PUBLIC "-//W3C//DTD SVG 1.1//EN" "http://www.w3.org/Graphics/SVG/1.1/DTD/svg11.dtd"><svg width="100%" height="100%" viewBox="0 0 315 315" version="1.1" xmlns="http://www.w3.org/2000/svg" xmlns:xlink="http://www.w3.org/1999/xlink" xml:space="preserve" xmlns:serif="http://www.serif.com/" style="fill-rule:evenodd;clip-rule:evenodd;stroke-linecap:round;stroke-linejoin:round;stroke-miterlimit:1.5;"><g><path d="M314.354,40.608c0,-22.036 -17.864,-39.9 -39.9,-39.9c-60.301,0 -173.992,0 -234.292,0c-22.037,0 -39.901,17.864 -39.901,39.9c0,60.301 0,173.992 0,234.292c0,22.037 17.864,39.901 39.901,39.901c60.3,0 173.991,0 234.292,0c22.036,0 39.9,-17.864 39.9,-39.901c0,-60.3 0,-173.991 0,-234.292Z" style="fill:#ffd729;"/><path d="M263.851,84.85c0,-0.858 -0.34,-1.681 -0.947,-2.288c-0.607,-0.607 -1.43,-0.947 -2.288,-0.947c-24.612,0 -182.005,0 -206.617,0c-0.858,0 -1.681,0.34 -2.288,0.947c-0.606,0.607 -0.947,1.43 -0.947,2.288c0,2.048 0,4.687 0,6.735c0,0.858 0.341,1.681 0.947,2.288c0.607,0.606 1.43,0.947 2.288,0.947c24.612,0 182.005,0 206.617,0c0.858,0 1.681,-0.341 2.288,-0.947c0.607,-0.607 0.947,-1.43 0.947,-2.288c0,-2.048 0,-4.687 0,-6.735Z" style="stroke:#000;stroke-width:1px;"/><path d="M238.647,279.696c0,-4.883 -3.959,-8.842 -8.842,-8.842c-28.334,0 -116.661,0 -144.994,0c-4.884,0 -8.843,3.959 -8.843,8.842c0,2.803 0,5.611 0,7.306c0,0.888 0.72,1.608 1.608,1.608c15.836,0 143.627,0 159.463,0c0.888,0 1.608,-0.72 1.608,-1.608c0,-1.695 0,-4.503 0,-7.306Z" style="stroke:#000;stroke-width:1px;"/><g><path d="M100.967,185.353c-3.91,14.236 -16.954,24.708 -32.425,24.708c-15.47,0 -28.514,-10.472 -32.424,-24.708l64.849,0Z" style="stroke:#000;stroke-width:1px;"/><path d="M40.691,187.698l27.897,-99.481" style="fill:none;stroke:#000;stroke-width:5px;stroke-linecap:butt;"/><path d="M96.486,187.698l-27.898,-99.481" style="fill:none;stroke:#000;stroke-width:5px;stroke-linecap:butt;"/></g><g><path d="M278.497,185.353c-3.91,14.236 -16.954,24.708 -32.424,24.708c-15.471,0 -28.515,-10.472 -32.424,-24.708l64.848,0Z" style="stroke:#000;stroke-width:1px;"/><path d="M218.221,187.698l27.897,-99.481" style="fill:none;stroke:#000;stroke-width:5px;stroke-linecap:butt;"/><path d="M274.016,187.698l-27.898,-99.481" style="fill:none;stroke:#000;stroke-width:5px;stroke-linecap:butt;"/></g><path d="M148.307,81.057l18.001,0l0,161.57l-9,28.227l-9.001,-28.227l0,-161.57Z"/><path d="M166.308,81.615l0,161.601l-9,27.638l0,-189.239l9,0Z"/><path d="M157.308,77.077c2.506,0 4.538,-2.032 4.538,-4.538c0,-7.424 0,-22.077 0,-29.5c0,-2.507 -2.032,-4.538 -4.538,-4.538c0,0 0,0 0,0c-2.507,0 -4.538,2.031 -4.538,4.538c0,7.423 0,22.076 0,29.5c0,2.506 2.031,4.538 4.538,4.538c0,0 0,0 0,0Z"/><path d="M172.832,77.077c0,-2.507 -2.032,-4.538 -4.538,-4.538c-5.884,0 -16.088,0 -21.973,0c-2.506,0 -4.538,2.031 -4.538,4.538c0,0 0,0 0,0c0,2.506 2.032,4.538 4.538,4.538c5.885,0 16.089,0 21.973,0c2.506,0 4.538,-2.032 4.538,-4.538c0,0 0,0 0,0Z"/><circle cx="157.308" cy="35.9" r="9.001"/></g></svg>