<?xml version="1.0" encoding="UTF-8" standalone="no"?><!DOCTYPE svg PUBLIC "-//W3C//DTD SVG 1.1//EN" "http://www.w3.org/Graphics/SVG/1.1/DTD/svg11.dtd"><svg width="100%" height="100%" viewBox="0 0 486 486" version="1.1" xmlns="http://www.w3.org/2000/svg" xmlns:xlink="http://www.w3.org/1999/xlink" xml:space="preserve" xmlns:serif="http://www.serif.com/" style="fill-rule:evenodd;clip-rule:evenodd;stroke-linejoin:round;stroke-miterlimit:1.41421;"><path d="M485.206,40.592c0,-22.037 -17.864,-39.901 -39.901,-39.901c-91.146,0 -313.775,0 -404.921,0c-22.037,0 -39.901,17.864 -39.901,39.901c0,91.146 0,313.775 0,404.921c0,22.037 17.864,39.901 39.901,39.901c91.146,0 313.775,0 404.921,0c22.037,0 39.901,-17.864 39.901,-39.901c0,-91.146 0,-313.775 0,-404.921Z" style="fill:#ffd729;"/><clipPath id="_clip1"><path d="M485.206,40.592c0,-22.037 -17.864,-39.901 -39.901,-39.901c-91.146,0 -313.775,0 -404.921,0c-22.037,0 -39.901,17.864 -39.901,39.901c0,91.146 0,313.775 0,404.921c0,22.037 17.864,39.901 39.901,39.901c91.146,0 313.775,0 404.921,0c22.037,0 39.901,-17.864 39.901,-39.901c0,-91.146 0,-313.775 0,-404.921Z"/></clipPath><g clip-path="url(#_clip1)"><g><path d="M153.396,196.495l20.153,0c11.656,-15.659 20.531,-29.317 26.626,-40.973c6.095,-11.656 9.142,-19.308 9.142,-22.956c0,-5.071 -4.359,-7.607 -13.079,-7.607c-5.072,0.445 -14.058,1.535 -26.96,3.27c-12.901,1.735 -25.402,3.804 -37.503,6.206c-10.855,2.046 -19.552,4.16 -26.092,6.339c-6.539,2.18 -11.144,3.982 -13.813,5.406c-2.669,1.423 -4.315,2.447 -4.938,3.069c6.584,-0.356 12.145,-0.534 16.683,-0.534c7.118,0 10.677,0.801 10.677,2.403c0,0.712 -2.492,1.624 -7.474,2.736c-4.983,1.112 -9.699,2.291 -14.147,3.537c-4.36,1.245 -8.609,2.713 -12.746,4.404c-4.137,1.69 -6.651,2.536 -7.541,2.536c-2.046,0 -3.737,-0.779 -5.071,-2.336c-1.335,-1.557 -2.002,-3.448 -2.002,-5.672c0,-1.513 1.223,-5.45 3.67,-11.812c2.447,-6.361 5.895,-12.768 10.343,-19.218c4.449,-6.451 9.966,-11.233 16.55,-14.348c2.402,-1.156 10.076,-3.247 23.022,-6.272c12.946,-3.025 27.56,-5.784 43.843,-8.275c16.282,-2.491 31.186,-3.737 44.71,-3.737c8.186,0 14.748,1.134 19.686,3.403c4.938,2.269 7.407,7.141 7.407,14.615c0,2.402 -0.89,6.117 -2.669,11.144c-1.78,5.027 -4.605,11.455 -8.475,19.285c-3.871,7.83 -8.586,16.416 -14.147,25.758c-5.561,9.343 -11.901,19.219 -19.019,29.629l20.553,0l-17.75,25.492c-2.403,0.178 -5.405,0.311 -9.009,0.4c-3.603,0.089 -7.541,0.223 -11.811,0.4c-10.944,14.237 -22.8,27.627 -35.568,40.173c-12.768,12.545 -24.335,22.6 -34.701,30.163c-10.365,7.562 -17.639,11.344 -21.821,11.344c-1.69,0 -3.159,-0.556 -4.404,-1.668c-1.246,-1.113 -1.869,-2.558 -1.869,-4.338c0,-1.513 1.98,-5.383 5.939,-11.611c3.96,-6.229 9.454,-12.056 16.483,-17.484c7.029,-5.427 15.037,-8.453 24.023,-9.075c3.648,-3.826 6.785,-7.23 9.41,-10.21c2.624,-2.981 6.339,-7.296 11.144,-12.946c4.804,-5.65 8.497,-9.988 11.077,-13.013l-40.172,2.002c-4.36,0.178 -7.363,-0.022 -9.009,-0.601c-1.646,-0.578 -2.469,-2.024 -2.469,-4.337c0,0 0.445,-1.134 1.335,-3.403c0.889,-2.269 1.824,-4.249 2.802,-5.939c1.424,-2.581 2.558,-4.138 3.404,-4.672c0.845,-0.534 3.27,-1.245 7.273,-2.135l24.558,-6.006c6.584,-1.69 11.166,-2.536 13.746,-2.536Z" style="fill-rule:nonzero;"/><path d="M247.888,211.31c15.927,-26.07 27.827,-46.601 35.702,-61.594c7.874,-14.992 11.811,-24.535 11.811,-28.627c0,-1.513 -0.534,-2.759 -1.602,-3.737c-1.067,-0.979 -2.313,-1.468 -3.737,-1.468c-2.758,0 -10.543,2.669 -23.356,8.007c-10.588,4.449 -18.328,7.986 -23.222,10.611c-4.894,2.624 -11.634,6.384 -20.22,11.277c-8.586,4.894 -13.502,7.341 -14.747,7.341c-2.492,0 -3.737,-1.735 -3.737,-5.205c0,-6.584 4.315,-15.438 12.946,-26.559c8.63,-11.122 20.241,-20.865 34.833,-29.229c1.78,-1.157 2.67,-1.068 2.67,0.267c0,0.445 -1.068,1.468 -3.203,3.07c-2.136,1.601 -4.027,3.225 -5.673,4.871c-1.646,1.646 -3.492,4.115 -5.538,7.407c18.684,-9.342 32.409,-15.926 41.173,-19.752c8.764,-3.826 16.26,-5.739 22.489,-5.739c5.427,0 9.698,1.134 12.812,3.403c3.114,2.269 4.671,5.539 4.671,9.81c0,3.737 -1.49,9.164 -4.471,16.282c-2.981,7.118 -7.318,15.771 -13.012,25.959c-5.695,10.187 -11.501,20.264 -17.417,30.229c-5.917,9.965 -16.617,27.983 -32.098,54.053c17.261,-21.621 33.143,-40.529 47.646,-56.722c14.503,-16.194 27.138,-29.362 37.904,-39.505c10.766,-10.143 19.841,-17.773 27.226,-22.889c7.385,-5.116 12.812,-7.674 16.283,-7.674c1.245,0 2.713,1.179 4.404,3.537c1.69,2.357 3.203,5.227 4.538,8.608c1.334,3.381 2.001,6.139 2.001,8.275c0,5.872 -1.49,11.7 -4.471,17.483c-2.98,5.784 -7.407,12.724 -13.279,20.821c-16.727,22.599 -28.939,40.394 -36.636,53.385c-7.696,12.99 -11.544,23.445 -11.544,31.364c0,5.961 3.114,8.942 9.342,8.942c2.847,0 6.184,-1.068 10.01,-3.203c3.826,-2.136 8.408,-5.428 13.747,-9.877c5.338,-4.449 10.721,-9.298 16.149,-14.547l0.267,10.41c-7.652,7.83 -14.503,14.525 -20.554,20.086c-6.05,5.561 -11.767,10.432 -17.15,14.614c-5.383,4.182 -10.21,7.341 -14.481,9.476c-4.27,2.136 -8.007,3.203 -11.21,3.203c-4.627,0 -8.342,-1.579 -11.145,-4.738c-2.802,-3.158 -4.204,-7.318 -4.204,-12.478c0,-4.805 1.046,-10.611 3.137,-17.417c2.091,-6.807 5.294,-14.659 9.609,-23.557c4.315,-8.897 9.654,-18.551 16.016,-28.961c6.361,-10.41 13.546,-21.265 21.554,-32.565c7.83,-11.211 11.745,-18.418 11.745,-21.621c0,-1.869 -0.979,-2.803 -2.937,-2.803c-7.918,0 -25.98,15.793 -54.186,47.38c-1.779,1.957 -4.871,5.583 -9.275,10.877c-4.405,5.294 -8.898,10.922 -13.48,16.883c-4.582,5.961 -9.721,12.657 -15.415,20.086c-5.694,7.43 -11.478,14.97 -17.35,22.622c-2.758,3.648 -5.116,5.472 -7.074,5.472c-2.135,0 -4.938,-1.735 -8.408,-5.205c-3.47,-3.47 -5.205,-6.006 -5.205,-7.607c0,-1.869 2.469,-6.54 7.407,-14.014c4.938,-7.474 8.92,-13.747 11.945,-18.818Z" style="fill-rule:nonzero;"/></g><path d="M296.75,340.181c0,0.386 0.358,0.579 1.075,0.579c0.496,0 2.742,-0.331 6.738,-0.992c3.995,-0.662 7.619,-1.02 10.871,-1.075c-3.638,0.992 -6.765,1.998 -9.383,3.018c-2.618,1.019 -5.319,2.149 -8.102,3.389c-2.783,1.24 -4.781,2.067 -5.994,2.48c-1.212,0.414 -2.26,0.62 -3.141,0.62c-2.811,0 -4.217,-1.818 -4.217,-5.456c0,-9.369 2.37,-15.956 7.11,-19.759c1.929,-1.543 5.029,-3.375 9.301,-5.497c4.271,-2.122 9.094,-4.134 14.467,-6.035c5.374,-1.902 11.285,-3.541 17.733,-4.919c6.449,-1.378 12.815,-2.067 19.098,-2.067c6.448,0 12.373,0.937 17.774,2.811c5.401,1.874 9.921,4.505 13.558,7.895c3.638,3.389 6.435,7.537 8.392,12.442c1.956,4.905 2.934,10.417 2.934,16.534c0,9.315 -2.686,18.354 -8.06,27.117c-5.374,8.763 -12.539,16.493 -21.495,23.189c-8.956,6.697 -19.056,12.002 -30.299,15.915c-11.243,3.913 -22.321,5.869 -33.234,5.869c-2.039,0 -3.652,-0.22 -4.837,-0.661c-1.184,-0.441 -2.025,-1.309 -2.521,-2.604c-0.496,-1.295 -0.744,-3.211 -0.744,-5.746c0,-3.141 0.248,-5.704 0.744,-7.688c0.496,-1.984 1.323,-4.272 2.48,-6.862c7.937,-17.582 21.743,-39.71 41.419,-66.386c-3.968,0.441 -8.322,1.282 -13.062,2.522c-4.74,1.24 -9.232,2.604 -13.476,4.092c-4.244,1.488 -7.826,2.921 -10.747,4.299c-2.921,1.378 -4.382,2.37 -4.382,2.976Zm44.064,-14.385c0,0.111 0.111,0.731 0.331,1.86c0.22,1.13 0.331,2.109 0.331,2.935c0,1.268 -0.648,3.045 -1.943,5.333c-1.295,2.287 -3.844,6.352 -7.647,12.194c-3.803,5.842 -7.055,10.968 -9.756,15.377c-2.7,4.409 -5.897,10.086 -9.59,17.03c-1.157,2.205 -1.956,3.693 -2.397,4.464c-0.441,0.772 -1.144,2.04 -2.108,3.803c-0.965,1.764 -1.667,3.28 -2.108,4.547c-0.441,1.268 -0.662,2.232 -0.662,2.894c0,1.433 0.786,2.439 2.357,3.017c1.57,0.579 3.816,0.868 6.737,0.868c7.496,0 15.432,-1.364 23.81,-4.092c8.377,-2.728 16.245,-6.517 23.603,-11.367c7.357,-4.85 13.241,-10.334 17.65,-16.452c4.409,-6.118 6.614,-12.511 6.614,-19.18c0,-7.606 -2.783,-13.462 -8.35,-17.568c-5.567,-4.106 -13.668,-6.159 -24.306,-6.159c-4.464,0 -8.653,0.166 -12.566,0.496Z" style="fill-rule:nonzero;"/></g></svg>