<?xml version="1.0" encoding="UTF-8" standalone="no"?><!DOCTYPE svg PUBLIC "-//W3C//DTD SVG 1.1//EN" "http://www.w3.org/Graphics/SVG/1.1/DTD/svg11.dtd"><svg width="100%" height="100%" viewBox="0 0 376 278" version="1.1" xmlns="http://www.w3.org/2000/svg" xmlns:xlink="http://www.w3.org/1999/xlink" xml:space="preserve" xmlns:serif="http://www.serif.com/" style="fill-rule:evenodd;clip-rule:evenodd;stroke-linecap:round;stroke-linejoin:round;stroke-miterlimit:1.5;"><g><path d="M0.999,275.203c0,0 22.154,-27.513 85.596,-27.733c63.442,-0.221 102.622,28.412 102.622,28.412c0,0 31.8,-26.173 92.477,-26.473c60.677,-0.299 87.522,28.057 87.522,28.057l5.811,-236.896c0,0 -31.455,-28.223 -92.807,-29.152c-61.353,-0.929 -91.268,29.152 -91.268,29.152c0,0 -15.889,-32.38 -90.386,-32.097c-74.496,0.284 -87.179,32.097 -87.179,32.097l-12.388,234.633Z" style="fill:#c4c4c4;stroke:#000;stroke-width:1px;"/><path d="M0.999,272.42c0,0 22.154,-27.513 85.596,-27.733c63.442,-0.221 102.622,28.412 102.622,28.412c0,0 31.8,-26.173 92.477,-26.473c60.677,-0.3 87.522,28.057 87.522,28.057l5.811,-236.896c0,0 -31.455,-28.223 -92.807,-29.152c-61.353,-0.929 -91.268,29.152 -91.268,29.152c0,0 -15.889,-32.38 -90.386,-32.097c-74.496,0.284 -87.179,32.097 -87.179,32.097l-12.388,234.633Z" style="fill:#c4c4c4;stroke:#000;stroke-width:1px;"/><path d="M0.999,270.045c0,0 22.154,-27.513 85.596,-27.734c63.442,-0.22 102.622,28.413 102.622,28.413c0,0 31.8,-26.173 92.477,-26.473c60.677,-0.3 87.522,28.057 87.522,28.057l5.811,-236.896c0,0 -31.455,-28.223 -92.807,-29.152c-61.353,-0.929 -91.268,29.152 -91.268,29.152c0,0 -15.889,-32.38 -90.386,-32.097c-74.496,0.283 -87.179,32.097 -87.179,32.097l-12.388,234.633Z" style="fill:#c4c4c4;stroke:#000;stroke-width:1px;"/><path d="M0.999,267.612c0,0 22.154,-27.512 85.596,-27.733c63.442,-0.221 102.622,28.412 102.622,28.412c0,0 31.8,-26.173 92.477,-26.472c60.677,-0.3 87.522,28.057 87.522,28.057l5.811,-236.896c0,0 -31.455,-28.224 -92.807,-29.153c-61.353,-0.928 -91.268,29.153 -91.268,29.153c0,0 -15.889,-32.381 -90.386,-32.097c-74.496,0.283 -87.179,32.097 -87.179,32.097l-12.388,234.632Z" style="fill:#c4c4c4;stroke:#000;stroke-width:1px;"/><path d="M189.217,268.291l1.735,-235.311l-1.735,235.311Z" style="fill:none;stroke:#000;stroke-width:1px;"/><text x="71.03px" y="44.549px" style="font-family:'BrushScriptMT', 'Brush Script MT', cursive;font-size:38.124px;">News</text><g transform="matrix(0.676161,0,-0.0205718,0.676161,-831.287,-383.971)"><text x="1291.93px" y="668.98px" style="font-family:'ArialMT', 'Arial', sans-serif;font-size:8px;">Quidem quia consequatur voluptates. Dolores vitae alias quam</text><text x="1291.93px" y="677.242px" style="font-family:'ArialMT', 'Arial', sans-serif;font-size:8px;">laudantium. Nihil ut fuga molestias eius. Sequi aut et minus</text><text x="1291.93px" y="685.503px" style="font-family:'ArialMT', 'Arial', sans-serif;font-size:8px;">minima aut est ut dolorum. Sed sed doloribus atque sit.</text><text x="1291.93px" y="693.765px" style="font-family:'ArialMT', 'Arial', sans-serif;font-size:8px;">Blanditiis ut harum asperiores nam exercitationem dolore</text><text x="1291.93px" y="702.027px" style="font-family:'ArialMT', 'Arial', sans-serif;font-size:8px;">assumenda voluptatum.</text><text x="1291.93px" y="722.288px" style="font-family:'ArialMT', 'Arial', sans-serif;font-size:8px;">Harum dolores omnis dolor quia ut rerum dignissimos.</text><text x="1291.93px" y="730.55px" style="font-family:'ArialMT', 'Arial', sans-serif;font-size:8px;">Inventore omnis ut perferendis quia blanditiis facere. Eveniet</text><text x="1291.93px" y="738.812px" style="font-family:'ArialMT', 'Arial', sans-serif;font-size:8px;">commodi nihil ea libero rem.</text><text x="1291.93px" y="759.074px" style="font-family:'ArialMT', 'Arial', sans-serif;font-size:8px;">Inventore consequuntur distinctio consequatur dolorem aliquid</text><text x="1291.93px" y="767.335px" style="font-family:'ArialMT', 'Arial', sans-serif;font-size:8px;">iure quis deserunt. Sequi esse consequatur in occaecati aut</text><text x="1291.93px" y="775.597px" style="font-family:'ArialMT', 'Arial', sans-serif;font-size:8px;">voluptatem eius. V<tspan x="1357.6px 1359.38px " y="775.597px 775.597px ">it</tspan>ae dicta beatae eos eaque nemo</text><text x="1291.93px" y="783.859px" style="font-family:'ArialMT', 'Arial', sans-serif;font-size:8px;">temporibus animi. Et quia qui molestias est animi.</text><text x="1291.93px" y="804.12px" style="font-family:'ArialMT', 'Arial', sans-serif;font-size:8px;">Ut veniam consequatur facere ea odio velit. Ea molestiae aut</text><text x="1291.93px" y="812.382px" style="font-family:'ArialMT', 'Arial', sans-serif;font-size:8px;">ut. Consequuntur odio id ut. V<tspan x="1397.34px 1401.79px " y="812.382px 812.382px ">el</tspan> aut adipisci reprehenderit et. Id</text><text x="1291.93px" y="820.644px" style="font-family:'ArialMT', 'Arial', sans-serif;font-size:8px;">fugiat et voluptatum iusto non temporibus. Odit nihil illo</text><text x="1291.93px" y="828.906px" style="font-family:'ArialMT', 'Arial', sans-serif;font-size:8px;">voluptatum et cupiditate blanditiis est vero.</text><text x="1291.93px" y="849.167px" style="font-family:'ArialMT', 'Arial', sans-serif;font-size:8px;">Reiciendis esse hic unde et atque aut. Quia mollitia vero at</text><text x="1291.93px" y="857.429px" style="font-family:'ArialMT', 'Arial', sans-serif;font-size:8px;">explicabo ipsum labore ex modi. V<tspan x="1413.33px 1417.78px " y="857.429px 857.429px ">ol</tspan>uptas fugit quia dolor iusto</text><text x="1291.93px" y="865.691px" style="font-family:'ArialMT', 'Arial', sans-serif;font-size:8px;">nihil. V<tspan x="1315.5px 1319.95px " y="865.691px 865.691px ">ol</tspan>uptatibus occaecati et optio ut sed et est. <tspan x="1468.49px 1473.83px " y="865.691px 865.691px ">Au</tspan>t voluptas</text><text x="1291.93px" y="873.952px" style="font-family:'ArialMT', 'Arial', sans-serif;font-size:8px;">fugit labore est voluptate.</text></g><g transform="matrix(0.676161,0,-0.0205718,0.676161,-647.372,-395.144)"><text x="1291.93px" y="668.98px" style="font-family:'ArialMT', 'Arial', sans-serif;font-size:8px;">Doloribus ut voluptatem ut omnis. Qui quaerat facilis hic</text><text x="1291.93px" y="677.242px" style="font-family:'ArialMT', 'Arial', sans-serif;font-size:8px;">maxime aut a eaque. Repudiandae eum sapiente hic amet</text><text x="1291.93px" y="685.503px" style="font-family:'ArialMT', 'Arial', sans-serif;font-size:8px;">sequi iste non corrupti.</text><text x="1291.93px" y="705.765px" style="font-family:'ArialMT', 'Arial', sans-serif;font-size:8px;">Non perferendis dolores sit sequi laborum accusantium veniam</text><text x="1291.93px" y="714.027px" style="font-family:'ArialMT', 'Arial', sans-serif;font-size:8px;">deleniti. Error veritatis ipsam nam hic doloremque voluptatem</text><text x="1291.93px" y="722.288px" style="font-family:'ArialMT', 'Arial', sans-serif;font-size:8px;">autem. Necessitatibus quia molestiae suscipit sequi quibusdam</text><text x="1291.93px" y="730.55px" style="font-family:'ArialMT', 'Arial', sans-serif;font-size:8px;">ut. Harum quia magnam accusantium nam. Pariatur porro aut</text><text x="1291.93px" y="738.812px" style="font-family:'ArialMT', 'Arial', sans-serif;font-size:8px;">et maxime qui qui a saepe. Labore ullam beatae error</text><text x="1291.93px" y="747.074px" style="font-family:'ArialMT', 'Arial', sans-serif;font-size:8px;">voluptatum laudantium ut natus esse.</text><text x="1291.93px" y="767.335px" style="font-family:'ArialMT', 'Arial', sans-serif;font-size:8px;">Minima maxime consequatur magnam sed pariatur aut incidunt</text><text x="1291.93px" y="775.597px" style="font-family:'ArialMT', 'Arial', sans-serif;font-size:8px;">et. <tspan x="1302.61px 1307.94px " y="775.597px 775.597px ">Ac</tspan>cusantium voluptas quod exercitationem a eaque. Non</text><text x="1291.93px" y="783.859px" style="font-family:'ArialMT', 'Arial', sans-serif;font-size:8px;">dignissimos temporibus perspiciatis deserunt praesentium</text><text x="1291.93px" y="792.12px" style="font-family:'ArialMT', 'Arial', sans-serif;font-size:8px;">perspiciatis. Enim reiciendis ut sed accusantium et. Sint rerum</text><text x="1291.93px" y="800.382px" style="font-family:'ArialMT', 'Arial', sans-serif;font-size:8px;">sed sit consequatur<tspan x="1360.87px " y="800.382px ">.</tspan></text><text x="1291.93px" y="820.644px" style="font-family:'ArialMT', 'Arial', sans-serif;font-size:8px;">Ut eum ut et. V<tspan x="1344.85px 1349.3px " y="820.644px 820.644px ">ol</tspan>uptatibus quo aut dolore id harum voluptas</text><text x="1291.93px" y="828.906px" style="font-family:'ArialMT', 'Arial', sans-serif;font-size:8px;">quis. Eveniet quia quis iste sunt. <tspan x="1408px 1413.34px " y="828.906px 828.906px ">Ab</tspan> ut est quia laboriosam.</text><text x="1291.93px" y="837.167px" style="font-family:'ArialMT', 'Arial', sans-serif;font-size:8px;">Consequatur est dolorem voluptatem ad voluptatem. Dolores</text><text x="1291.93px" y="845.429px" style="font-family:'ArialMT', 'Arial', sans-serif;font-size:8px;">eaque sed culpa eos est autem tempora dolorem.vv</text><text x="1291.93px" y="865.691px" style="font-family:'ArialMT', 'Arial', sans-serif;font-size:8px;">Omnis distinctio sint et molestiae iste ad. Nemo maiores velit</text><text x="1291.93px" y="873.952px" style="font-family:'ArialMT', 'Arial', sans-serif;font-size:8px;">sunt aperiam. Ut et consectetur quo vel. Nemo libero</text><text x="1291.93px" y="882.214px" style="font-family:'ArialMT', 'Arial', sans-serif;font-size:8px;">numquam nemo.</text></g></g></svg>